<?xml version="1.0" encoding="UTF-8" standalone="no"?>
<svg width="399px" height="316px" viewBox="0 0 399 316" version="1.1" xmlns="http://www.w3.org/2000/svg" xmlns:xlink="http://www.w3.org/1999/xlink">
    <!-- Generator: Sketch 46.2 (44496) - http://www.bohemiancoding.com/sketch -->
    <title>Group 4</title>
    <desc>Created with Sketch.</desc>
    <defs></defs>
    <g id="Page-1" stroke="none" stroke-width="1" fill="none" fill-rule="evenodd">
        <g id="Group-4" transform="translate(-2.000000, 0.000000)" fill="#9C9FB2">
            <g id="Group-3" transform="translate(7.000000, 27.000000)" fill-rule="nonzero">
                <polygon id="Fill-1" points="116.626526 55.4766656 147.219978 55.4766656 147.219978 0.6621731 116.626526 0.6621731"></polygon>
                <polyline id="Fill-2" points="190.100469 0.6621731 250.746235 0.6621731 250.746235 15.346218 220.757585 15.346218 220.757585 24.214579 247.731773 24.214579 247.731773 37.7845083 220.757585 37.7845083 220.757585 55.4734824 190.100469 55.4734824 190.100469 0.6621731"></polyline>
                <polyline id="Fill-3" points="272.856538 55.4734824 304.659595 55.4734824 316.96255 18.2047206 329.265504 55.4734824 361.065378 55.4734824 335.128904 0.6621731 298.796195 0.6621731 272.856538 55.4734824"></polyline>
                <path d="M28.8665128,43.7052374 L38.088158,43.7052374 C42.789701,43.7052374 46.1033815,43.189561 48.0228334,42.1518418 C49.9518348,41.120489 50.9195186,39.729436 50.9195186,37.9850491 C50.9195186,36.3679897 49.9645675,35.0660659 48.0578483,34.0760946 C46.1479459,33.0956727 42.8088,32.6022787 38.0308609,32.6022787 L28.8665128,32.6022787 L28.8665128,43.7052374 L28.8665128,43.7052374 Z M28.8665128,22.1614229 L36.9581325,22.1614229 C41.2108484,22.1614229 44.1616475,21.7094103 45.8296289,20.7926522 C47.4944271,19.8886269 48.3252346,18.5707872 48.3252346,16.8518658 C48.3252346,15.2539056 47.4944271,14.006096 45.8296289,13.1084371 C44.1616475,12.2107781 41.2681454,11.7619487 37.13639,11.7619487 L28.8665128,11.7619487 L28.8665128,22.1614229 L28.8665128,22.1614229 Z M0.43125,0.6621731 L51.4638408,0.6621731 C59.9660894,0.6621731 66.4979555,1.9704633 71.0498894,4.5870436 C75.6050065,7.2036239 77.8809735,10.444109 77.8809735,14.3084988 C77.8809735,17.5521671 76.2511901,20.3342732 73.001173,22.6516338 C70.8334338,24.1986631 67.6598127,25.417824 63.4866761,26.3154829 C69.8275519,27.2640729 75.5477094,30.5936872 78.1833747,33.2198171 C80.857238,35.8841452 81.9713477,37.8163401 81.9713477,41.3051139 C81.9713477,44.1477005 80.9081687,46.7038002 78.7754444,48.9702299 C76.6554528,51.2398427 72.9725244,52.9269322 67.8094218,53.8627894 C59.2403265,55.4193682 49.4966414,55.4734824 47.4880607,55.4734824 L0.43125,55.4734824 L0.43125,0.6621731 L0.43125,0.6621731 Z" id="Fill-4"></path>
            </g>
            <path d="M58.824508,101.302038 C58.824508,101.302038 63.02311,109.046733 83.0325202,121.378403 C92.3496605,127.124057 99.155279,129.387303 110.958476,135.292116 C110.958476,135.292116 100.428547,134.887851 95.2749943,136.218424 C91.1623379,137.281609 89.6885299,138.628097 89.6885299,138.628097 C89.6885299,138.628097 105.177838,151.656884 130.977436,159.48116 C156.420518,167.197207 195.624447,174.286166 241.503485,160.315155 C287.382522,146.340961 281.544587,117.771851 281.544587,117.771851 L349.527562,137.167014 C349.527562,137.167014 338.456494,172.716854 275.079568,185.128103 C204.801528,198.89539 163.554003,189.571833 129.723266,177.606231 C99.072517,166.764293 79.8875477,147.174956 79.8875477,147.174956 C79.8875477,147.174956 77.6147639,147.919822 76.5484018,153.850101 C75.618916,159.045063 75.507505,164.902128 75.507505,164.902128 C75.507505,164.902128 66.3304242,150.510937 62.3673768,131.742862 C58.4075126,112.974787 58.824508,101.302038 58.824508,101.302038" id="Fill-5" fill-rule="nonzero"></path>
            <path d="M386.216786,13.1468371 C388.616896,13.1468371 390.981992,13.0704406 390.981992,10.3742806 C390.981992,8.15878196 389.13257,7.64310555 387.213118,7.64310555 L383.628868,7.64310555 L383.628868,13.1468371 L386.216786,13.1468371 L386.216786,13.1468371 Z M383.628868,21.8624051 L381.674401,21.8624051 L381.674401,5.98148156 L387.76699,5.98148156 C391.35124,5.98148156 392.939642,7.53169398 392.939642,10.3742806 C392.939642,13.1818522 391.09022,14.4392113 388.947946,14.8084611 L393.674954,21.8624051 L391.386255,21.8624051 L386.917083,14.8084611 L383.628868,14.8084611 L383.628868,21.8624051 L383.628868,21.8624051 Z M375.062956,13.9203517 C375.062956,20.4968176 380.009603,25.7013295 386.659246,25.7013295 C393.30889,25.7013295 398.255537,20.4968176 398.255537,13.9203517 C398.255537,7.34706909 393.30889,2.13937399 386.659246,2.13937399 C380.009603,2.13937399 375.062956,7.34706909 375.062956,13.9203517 L375.062956,13.9203517 Z M400.400994,13.9203517 C400.400994,21.6395819 394.416633,27.6621731 386.659246,27.6621731 C378.90186,27.6621731 372.920682,21.6395819 372.920682,13.9203517 C372.920682,6.20112151 378.90186,0.181713542 386.659246,0.181713542 C394.416633,0.181713542 400.400994,6.20112151 400.400994,13.9203517 L400.400994,13.9203517 Z" id="Fill-21" fill-rule="nonzero"></path>
            <text id="BRITISH-INTERNATIONA" font-family="Arial-Black, Arial Black" font-size="30" font-weight="700" letter-spacing="-2.61999989">
                <tspan x="0.310721397" y="273">BRITISH  INTERNATIONAL</tspan>
                <tspan x="13.5926356" y="315">FREIGHT  ASSOCIATIO</tspan>
                <tspan x="338.41713" y="315">N</tspan>
            </text>
        </g>
    </g>
</svg>