<?xml version="1.0" encoding="UTF-8" standalone="no"?>
<svg width="128px" height="163px" viewBox="0 0 128 163" version="1.1" xmlns="http://www.w3.org/2000/svg" xmlns:xlink="http://www.w3.org/1999/xlink">
    <!-- Generator: Sketch 45.1 (43504) - http://www.bohemiancoding.com/sketch -->
    <title>Group 24</title>
    <desc>Created with Sketch.</desc>
    <defs></defs>
    <g id="Page-1" stroke="none" stroke-width="1" fill="none" fill-rule="evenodd">
        <g id="LedaTransport" transform="translate(-485.000000, -258.000000)" fill-rule="nonzero" fill="#9C9FB2">
            <g id="Group-24" transform="translate(485.000000, 258.000000)">
                <polygon id="Shape" transform="translate(63.601359, 63.654360) scale(-1, 1) rotate(-180.000000) translate(-63.601359, -63.654360) " points="0.106002264 63.6543597 0.106002264 0.106002264 13.0382785 0.106002264 25.9705547 0.106002264 25.9705547 50.6160812 25.9705547 101.12616 63.8133631 101.12616 101.656171 101.12616 101.656171 88.8828985 101.656171 76.639637 77.2226495 76.6184366 52.7891276 76.5866359 52.7891276 63.8345635 52.7891276 51.0930914 89.9429212 51.0612907 127.096715 51.0400902 127.096715 89.1267038 127.096715 127.202717 63.6013585 127.202717 0.106002264 127.202717"></polygon>
                <path d="M52.7891276,127.149716 C52.7891276,127.117915 52.7891276,121.361992 52.7891276,114.355243 L52.7891276,101.60317 L89.9429212,101.57137 L127.096715,101.550169 L127.096715,114.376443 L127.096715,127.202717 L89.9429212,127.202717 C69.5056846,127.202717 52.7891276,127.181517 52.7891276,127.149716 Z" id="Shape" transform="translate(89.942921, 114.376443) scale(-1, 1) rotate(-180.000000) translate(-89.942921, -114.376443) "></path>
                <path d="M0.816217434,148.012234 C0.773816529,147.980433 0.74201585,145.118372 0.74201585,141.652098 L0.74201585,135.366163 L1.43103057,135.366163 L2.12004528,135.366163 L2.12004528,139.627454 C2.12004528,141.970104 2.15184596,143.856945 2.18364664,143.814544 C2.22604755,143.782743 2.90446204,141.874702 3.69947902,139.585054 L5.14110981,135.419165 L5.78772363,135.387364 C6.3389354,135.366163 6.45553789,135.387364 6.51913925,135.546367 C6.56154016,135.65237 7.08095125,137.147001 7.68516416,138.864238 C8.28937706,140.581475 8.93599087,142.447115 9.13739518,142.998326 L9.48720265,144.005348 L9.54020378,139.680456 C9.57200446,137.306005 9.62500559,135.366163 9.67800672,135.366163 C9.72040763,135.366163 10.017214,135.366163 10.3352208,135.366163 L10.9182332,135.366163 L10.8970328,141.705099 L10.8652321,148.033434 L10.2822196,148.065235 C9.96421284,148.075835 9.64620604,148.054634 9.58260469,148.012234 C9.48720265,147.938032 8.55438272,145.266775 6.48733857,139.161044 C6.15873155,138.175223 5.85132498,137.380206 5.80892408,137.380206 C5.7771234,137.380206 5.40611548,138.366028 5.00330687,139.585054 C3.18006793,144.980569 2.19424687,147.83203 2.09884483,147.959232 C1.98224234,148.086435 0.943420152,148.139436 0.816217434,148.012234 Z" id="Shape" transform="translate(5.830125, 141.725663) scale(-1, 1) rotate(-180.000000) translate(-5.830125, -141.725663) "></path>
                <path d="M13.8438957,147.929646 C13.7378934,147.64344 13.7696941,135.537982 13.8756964,135.431979 C13.9392977,135.368378 15.4445299,135.347177 17.7765797,135.378978 L21.5714608,135.431979 L21.5714608,135.961991 L21.5714608,136.492002 L18.4125933,136.545003 C16.6847564,136.576804 15.264326,136.629805 15.264326,136.682806 C15.264326,136.725207 15.264326,137.80643 15.264326,139.089057 L15.264326,141.421107 L17.4903736,141.421107 L19.7164211,141.421107 L19.7164211,142.00412 L19.7164211,142.587132 L17.511574,142.587132 C16.292548,142.587132 15.2749263,142.608333 15.2537258,142.629533 C15.2325254,142.650733 15.2219251,143.604754 15.2431256,144.749578 L15.2749263,146.827223 L18.3807926,146.827223 C21.7940655,146.827223 21.6244619,146.795422 21.6244619,147.463236 C21.6244619,148.141651 21.8682671,148.09925 17.7023781,148.09925 C14.3421063,148.09925 13.8968968,148.078049 13.8438957,147.929646 Z" id="Shape" transform="translate(17.702835, 141.732071) scale(-1, 1) rotate(-180.000000) translate(-17.702835, -141.732071) "></path>
                <path d="M24.2745185,141.752567 L24.2745185,135.403032 L24.8681312,135.360631 C25.186138,135.350031 25.4935445,135.371231 25.5571459,135.434833 C25.610147,135.487834 25.6525479,137.236871 25.6631482,139.727924 L25.6631482,143.915014 L26.2885615,142.165976 C26.6277688,141.201356 27.295583,139.293315 27.7725932,137.925886 C28.2496034,136.558457 28.6842127,135.413632 28.7266136,135.381831 C28.7690145,135.350031 29.0764211,135.350031 29.3944279,135.360631 L29.9668401,135.403032 L31.4296713,139.600721 C32.2352885,141.922171 32.9243033,143.840812 32.9561039,143.883213 C32.9879046,143.925614 33.0091051,142.070574 32.9879046,139.770325 C32.9667042,137.130869 32.9985049,135.530235 33.0621062,135.445433 C33.1257076,135.371231 33.3695128,135.33943 33.7829216,135.381831 L34.3977347,135.434833 L34.3977347,141.741967 L34.3977347,148.049102 L33.70872,148.049102 L33.0197053,148.049102 L31.1752659,142.664187 C30.1576442,139.706724 29.3202263,137.300472 29.2990258,137.321673 C29.2778254,137.342873 28.5676102,139.378117 27.7301923,141.85857 C26.8927744,144.328422 26.0659568,146.734674 25.8963531,147.201084 L25.5995468,148.049102 L24.9423328,148.080903 L24.2745185,148.112703 L24.2745185,141.752567 Z" id="Shape" transform="translate(29.336127, 141.733497) scale(-1, 1) rotate(-180.000000) translate(-29.336127, -141.733497) "></path>
                <path d="M37.3869986,148.040382 C37.2703961,147.92378 37.3021968,135.415513 37.4187993,135.373112 C37.4718004,135.362512 38.9240314,135.362512 40.6306679,135.394312 L43.7471344,135.447313 L44.2665455,135.76532 C44.616353,135.987925 44.9025591,136.274131 45.1357641,136.666339 L45.4749713,137.238752 L45.4749713,138.998389 L45.4749713,140.747427 L45.1569646,141.309239 C44.9767607,141.606045 44.7859566,141.86045 44.7329555,141.86045 C44.5527517,141.86045 44.616353,142.072455 44.8919589,142.369261 C45.3901695,142.899273 45.4961718,143.386883 45.4537709,144.955717 C45.4219702,146.312546 45.41137,146.407948 45.1251639,146.821356 C44.7329555,147.414969 44.0969419,147.860179 43.4503281,147.997982 C42.8779159,148.125184 37.5036011,148.156985 37.3869986,148.040382 Z M43.6729329,146.439748 C44.0121401,146.100541 44.0863417,145.941538 44.149943,145.422127 C44.2559453,144.616509 44.1393428,143.70489 43.8849374,143.291481 C43.5139295,142.697868 43.3337256,142.655467 40.9274742,142.655467 L38.7438276,142.655467 L38.7120269,144.754312 L38.6908264,146.842557 L40.9804753,146.842557 L43.2701243,146.842557 L43.6729329,146.439748 Z M43.3549261,141.245637 C44.0015399,140.91703 44.149943,140.514222 44.149943,138.998389 C44.149943,137.503757 44.0333406,137.132749 43.4291276,136.772342 C43.1217211,136.581538 42.8885161,136.560337 40.8956735,136.560337 L38.6908264,136.560337 L38.6908264,138.924188 C38.6908264,140.228016 38.7226271,141.330439 38.765028,141.36224 C38.7968287,141.404641 39.7614493,141.436441 40.9062738,141.436441 C42.6765116,141.436441 43.0369193,141.404641 43.3549261,141.245637 Z" id="Shape" transform="translate(41.394406, 141.739738) scale(-1, 1) rotate(-180.000000) translate(-41.394406, -141.739738) "></path>
                <path d="M48.4112341,148.021562 C48.2840314,147.904959 48.3264323,135.375492 48.4430347,135.375492 C48.5066361,135.375492 50.234473,135.375492 52.2909169,135.375492 L56.0221966,135.364891 L56.0539973,135.958504 L56.085798,136.541517 L52.9269305,136.562717 L49.768063,136.594518 L49.768063,138.979569 L49.768063,141.36462 L52.0259113,141.39642 L54.2731593,141.417621 L54.2731593,142.000633 L54.2731593,142.583646 L52.0259113,142.604846 L49.768063,142.636647 L49.7362624,144.724891 L49.7150619,146.823736 L52.8633292,146.844937 L56.0221966,146.876737 L56.0539973,147.49155 L56.085798,148.095763 L52.2803167,148.095763 C50.1920721,148.095763 48.4430347,148.063963 48.4112341,148.021562 Z" id="Shape" transform="translate(52.209714, 141.730327) scale(-1, 1) rotate(-180.000000) translate(-52.209714, -141.730327) "></path>
                <path d="M58.799456,148.049387 C58.6828535,147.932784 58.7040539,135.56232 58.8312566,135.435117 C58.8842578,135.382116 59.2022646,135.360916 59.5414718,135.392716 L60.1562849,135.445717 L60.1774854,138.413781 L60.1986858,141.381844 L61.142106,141.413645 L62.0855262,141.445446 L63.8663642,138.413781 L65.636602,135.392716 L66.3150165,135.392716 C66.6860244,135.392716 66.993431,135.435117 66.993431,135.488118 C66.993431,135.541119 66.2302147,136.887348 65.2973948,138.477382 C64.3645748,140.056816 63.6013585,141.381844 63.6013585,141.392444 C63.6013585,141.413645 63.855764,141.434845 64.1737708,141.434845 C65.2761943,141.434845 66.1242124,141.911856 66.6330233,142.834075 C66.9192294,143.364087 66.9404299,143.459489 66.9404299,144.667914 C66.9404299,146.141346 66.8238274,146.565355 66.2620154,147.190768 C65.5199995,148.017586 65.3291954,148.059987 61.9053223,148.091788 C60.2410868,148.112988 58.8418569,148.091788 58.799456,148.049387 Z M64.8839859,146.660757 C65.0535895,146.554755 65.2973948,146.268549 65.4139972,146.014143 C65.6048013,145.621935 65.636602,145.40993 65.5942011,144.572512 C65.5624004,143.756295 65.5093993,143.54429 65.307995,143.247484 C64.8945862,142.664472 64.5871796,142.60087 62.2975307,142.60087 C61.1633065,142.60087 60.2198863,142.622071 60.1986858,142.643271 C60.1774854,142.664472 60.1668852,143.618492 60.1880856,144.763316 L60.2198863,146.840961 L62.3929327,146.840961 C64.2691728,146.840961 64.6189803,146.81976 64.8839859,146.660757 Z" id="Shape" transform="translate(62.858143, 141.738940) scale(-1, 1) rotate(-180.000000) translate(-62.858143, -141.738940) "></path>
                <path d="M75.5266133,148.060922 C74.5725929,147.817117 73.9365793,147.361307 73.5337707,146.598091 C73.3005657,146.174082 73.3005657,146.07868 73.3005657,141.711386 C73.3005657,137.322893 73.3005657,137.248691 73.5337707,136.824682 C73.830577,136.26287 74.4983913,135.690458 75.0390028,135.531454 C75.6644162,135.34065 79.3002939,135.361851 79.7667038,135.552655 C80.4027174,135.828261 80.8691274,136.25227 81.1659337,136.867083 L81.4627401,137.471296 L81.4627401,141.764388 L81.4627401,146.057479 L81.2083346,146.55569 C81.0811319,146.831296 80.7949258,147.212904 80.5829213,147.393108 C79.8939065,147.997321 79.6289009,148.060922 77.5936574,148.082122 C76.5760357,148.103323 75.6432157,148.082122 75.5266133,148.060922 Z M79.4380968,146.629891 C80.0317095,146.163481 80.0317095,146.152881 80.0317095,141.690186 C80.0317095,137.799903 80.0211093,137.556098 79.819705,137.238091 C79.448697,136.623278 79.1624909,136.549076 77.2226495,136.591477 C75.5478137,136.623278 75.4842123,136.633878 75.1980062,136.888283 C74.6361942,137.407694 74.625594,137.524297 74.625594,141.700786 C74.625594,147.064501 74.5089915,146.852496 77.3922531,146.852496 C79.024688,146.852496 79.1730911,146.831296 79.4380968,146.629891 Z" id="Shape" transform="translate(77.381653, 141.744707) scale(-1, 1) rotate(-180.000000) translate(-77.381653, -141.744707) "></path>
                <path d="M84.3460016,148.029461 C84.3036007,147.99766 84.2718001,145.135599 84.2718001,141.669325 L84.2718001,135.383391 L84.8548125,135.383391 C85.1728193,135.383391 85.4696256,135.383391 85.5226268,135.383391 C85.5650277,135.383391 85.6180288,136.729619 85.6498295,138.372654 L85.7028306,141.372518 L87.9606788,141.404319 L90.2079268,141.42552 L90.2079268,142.008532 L90.2079268,142.591545 L87.9606788,142.612745 L85.7028306,142.644546 L85.6710299,144.73279 L85.6498295,146.831635 L88.7980967,146.852836 L91.9569642,146.884636 L91.9569642,147.467649 L91.9569642,148.050661 L88.1832836,148.082462 C86.1162394,148.093062 84.3884025,148.071862 84.3460016,148.029461 Z" id="Shape" transform="translate(88.114382, 141.734277) scale(-1, 1) rotate(-180.000000) translate(-88.114382, -141.734277) "></path>
                <path d="M97.7764885,147.965911 C97.7446878,147.891709 97.7340876,147.616103 97.7552881,147.361698 L97.7870887,146.895288 L99.4619245,146.863487 L101.12616,146.831686 L101.12616,141.128765 C101.12616,137.461086 101.168561,135.394042 101.232162,135.372842 C101.285163,135.362241 101.60317,135.362241 101.921177,135.372842 L102.504189,135.415242 L102.504189,141.128765 L102.504189,146.842287 L104.200226,146.842287 L105.896262,146.842287 L105.896262,147.4783 L105.896262,148.114314 L101.868176,148.114314 C98.5291046,148.114314 97.8188894,148.093113 97.7764885,147.965911 Z" id="Shape" transform="translate(101.820260, 141.739603) scale(-1, 1) rotate(-180.000000) translate(-101.820260, -141.739603) "></path>
                <path d="M108.514518,148.039125 C108.472117,147.996724 108.440316,145.134663 108.440316,141.668389 L108.440316,135.382454 L109.129331,135.382454 L109.818346,135.382454 L109.818346,138.403519 L109.818346,141.424583 L112.521403,141.424583 L115.224461,141.424583 L115.224461,138.414119 L115.224461,135.403655 L115.871075,135.361254 C116.220882,135.350654 116.538889,135.350654 116.56009,135.371854 C116.58129,135.393055 116.602491,138.276316 116.602491,141.763791 L116.602491,148.113326 L115.945277,148.081526 L115.277462,148.049725 L115.245662,145.314867 L115.224461,142.590608 L112.542604,142.611809 L109.871347,142.64361 L109.818346,145.346667 L109.765345,148.049725 L109.182332,148.081526 C108.853725,148.102726 108.556919,148.081526 108.514518,148.039125 Z" id="Shape" transform="translate(112.521403, 141.733809) scale(-1, 1) rotate(-180.000000) translate(-112.521403, -141.733809) "></path>
                <path d="M119.644756,148.010962 C119.602355,147.979161 119.570554,145.1171 119.570554,141.650826 L119.570554,135.364891 L123.386636,135.364891 L127.202717,135.364891 L127.202717,135.947904 L127.202717,136.530916 L124.07565,136.530916 L120.948583,136.530916 L120.948583,138.968968 L120.948583,141.40702 L123.227632,141.40702 L125.506681,141.40702 L125.506681,141.990033 L125.506681,142.573045 L123.259433,142.594246 L121.001585,142.626047 L120.969784,144.724891 L120.948583,146.813136 L124.07565,146.813136 L127.202717,146.813136 L127.202717,147.44915 L127.202717,148.085163 L123.460837,148.085163 C121.393793,148.085163 119.676556,148.053362 119.644756,148.010962 Z" id="Shape" transform="translate(123.386636, 141.725027) scale(-1, 1) rotate(-180.000000) translate(-123.386636, -141.725027) "></path>
                <path d="M84.1127967,162.130992 C82.8407695,161.908387 82.1517548,161.11337 82.1517548,159.894344 C82.1517548,158.961524 82.4697616,158.643517 84.1657978,157.8379 C85.7770322,157.085284 86.0738385,156.830879 86.0738385,156.237266 C86.0738385,155.187844 85.300022,154.721434 83.7629892,154.838036 C83.2541783,154.880437 82.6817661,154.933438 82.490962,154.975839 C82.1411545,155.02884 82.1411545,155.02884 82.1729552,154.679033 C82.2047559,154.339825 82.2365566,154.308025 82.7347672,154.180822 C84.3778023,153.778013 85.5756279,153.958217 86.3494444,154.732034 C87.1020605,155.47405 87.2292632,156.544672 86.656851,157.297289 C86.4448465,157.572894 85.9890367,157.8485 84.8442123,158.410312 C84.0067944,158.823721 83.2435781,159.25833 83.1587763,159.385533 C82.7877684,159.915544 83.0951749,160.827164 83.7735894,161.176971 C84.1551976,161.367776 84.3354014,161.388976 85.2682213,161.335975 C85.861834,161.293574 86.4660469,161.240573 86.6356505,161.198172 C86.9006562,161.134571 86.9218567,161.155771 86.9218567,161.452577 C86.9218567,161.664582 86.8476551,161.823585 86.7310526,161.887187 C86.4130458,162.05679 84.6216075,162.226394 84.1127967,162.130992 Z" id="Shape" transform="translate(84.582556, 158.065541) scale(-1, 1) rotate(-180.000000) translate(-84.582556, -158.065541) "></path>
                <polygon id="Shape" transform="translate(2.443352, 158.075877) scale(-1, 1) rotate(-180.000000) translate(-2.443352, -158.075877) " points="0.0212004528 158.081177 0.0530011321 154.02129 2.43805208 154.02129 4.82310302 154.02129 4.8549037 154.424099 4.88670438 154.816307 2.87266136 154.816307 0.848018114 154.816307 0.848018114 156.35334 0.848018114 157.890373 2.27904868 157.890373 3.71007925 157.890373 3.71007925 158.314382 3.71007925 158.738391 2.27904868 158.738391 0.848018114 158.738391 0.848018114 160.063419 0.848018114 161.388447 2.86206113 161.388447 4.87610415 161.388447 4.87610415 161.759455 4.87610415 162.130463 2.43805208 162.130463 0 162.130463"></polygon>
                <path d="M6.59334083,158.10692 L6.62514151,154.047033 L6.99614944,154.047033 L7.36715736,154.047033 L7.4201585,157.280102 L7.47315963,160.513171 L9.26459789,157.439106 C10.2504189,155.74307 11.1302377,154.280238 11.2256398,154.174236 C11.331642,154.047033 11.5012457,153.994032 11.70265,154.015233 L12.031257,154.047033 L12.0630577,158.10692 L12.0842581,162.166807 L11.6496488,162.135006 L11.2256398,162.103205 L11.23624,159.007939 C11.23624,157.301303 11.2044393,155.902073 11.1620384,155.902073 C11.1196375,155.912673 10.2610192,157.301303 9.26459789,159.007939 L7.4625594,162.103205 L7.01734989,162.135006 L6.57214038,162.166807 L6.59334083,158.10692 Z" id="Shape" transform="translate(9.328199, 158.088748) scale(-1, 1) rotate(-180.000000) translate(-9.328199, -158.088748) "></path>
                <polygon id="Shape" transform="translate(16.271348, 158.075877) scale(-1, 1) rotate(-180.000000) translate(-16.271348, -158.075877) " points="13.6742921 161.759455 13.6742921 161.388447 14.7343147 161.388447 15.7943374 161.388447 15.8155378 157.710169 15.8473385 154.02129 16.2713476 154.02129 16.6953566 154.02129 16.7271573 157.710169 16.7483577 161.388447 17.8083804 161.388447 18.868403 161.388447 18.868403 161.759455 18.868403 162.130463 16.2713476 162.130463 13.6742921 162.130463"></polygon>
                <path d="M20.4796374,158.110501 L20.5114381,154.050614 L20.8824461,154.050614 L21.253454,154.050614 L21.2852547,155.990456 L21.3064551,157.919697 L21.9424687,157.919697 L22.5678821,157.919697 L23.7127065,155.990456 C24.8151301,154.135416 24.8787314,154.050614 25.2179387,154.018814 C25.4087427,153.997613 25.610147,154.018814 25.6525479,154.071815 C25.7055491,154.114216 25.2497393,154.994035 24.6455264,156.011656 L23.5643033,157.866696 L24.0307133,157.940898 C24.5925253,158.025699 25.0801357,158.301305 25.3769421,158.693514 C25.5571459,158.937319 25.610147,159.181124 25.6419477,159.901939 C25.6843486,160.951362 25.514745,161.460173 24.9741334,161.852381 C24.6561267,162.096186 24.5607246,162.106787 22.5466816,162.138587 L20.458437,162.170388 L20.4796374,158.110501 Z M24.4441221,161.173967 C24.6773271,160.972562 24.7409285,160.813559 24.7833294,160.325948 C24.8363305,159.605133 24.7621289,159.255326 24.486523,158.97972 C24.295719,158.788916 24.1261153,158.767715 22.7904868,158.767715 L21.3064551,158.767715 L21.3064551,160.092744 L21.3064551,161.417772 L22.7268854,161.417772 C24.0731142,161.417772 24.1791165,161.407172 24.4441221,161.173967 Z" id="Shape" transform="translate(23.057589, 158.090539) scale(-1, 1) rotate(-180.000000) translate(-23.057589, -158.090539) "></path>
                <path d="M27.4227858,162.094422 C27.3803848,162.062622 27.3485842,160.271183 27.3485842,158.140538 C27.3485842,154.96047 27.3803848,154.218454 27.4969873,154.123052 C27.5923894,154.03825 28.3344052,154.00645 29.9562399,154.02765 L32.2776895,154.059451 L32.3094901,154.462259 L32.3412908,154.854468 L30.3272478,154.854468 L28.3026045,154.854468 L28.3026045,156.391501 L28.3026045,157.928533 L29.7442353,157.928533 L31.1752659,157.928533 L31.1434652,158.331342 L31.1116645,158.72355 L29.7124347,158.755351 L28.3026045,158.787152 L28.3026045,160.10158 L28.3026045,161.426608 L30.3166476,161.426608 L32.3306906,161.426608 L32.3306906,161.797616 L32.3306906,162.168624 L29.913839,162.168624 C28.5782104,162.168624 27.4545864,162.136823 27.4227858,162.094422 Z" id="Shape" transform="translate(29.844937, 158.094957) scale(-1, 1) rotate(-180.000000) translate(-29.844937, -158.094957) "></path>
                <path d="M34.0479273,158.081177 L34.0797279,154.02129 L34.4507359,154.02129 L34.8217438,154.02129 L34.8535445,155.961131 L34.8747449,157.890373 L36.3375762,157.890373 C37.641404,157.890373 37.8534086,157.911573 38.2668174,158.134178 C38.9452319,158.473385 39.2208378,159.045797 39.2208378,160.12702 C39.2208378,161.03864 39.0194335,161.452049 38.3834199,161.886658 C38.0442126,162.119863 37.9276101,162.130463 36.0195694,162.130463 L34.0267268,162.130463 L34.0479273,158.081177 Z M38.0230122,161.134042 C38.2986181,160.890237 38.3198185,160.826635 38.3198185,160.084619 C38.3198185,159.385004 38.2880178,159.247202 38.0654131,159.013997 C37.8110076,158.738391 37.779207,158.738391 36.3375762,158.738391 L34.8747449,158.738391 L34.8747449,160.063419 L34.8747449,161.388447 L36.2951753,161.388447 C37.6520042,161.388447 37.7368061,161.377847 38.0230122,161.134042 Z" id="Shape" transform="translate(36.623782, 158.075877) scale(-1, 1) rotate(-180.000000) translate(-36.623782, -158.075877) "></path>
                <path d="M40.7048695,158.217053 C40.7048695,153.892161 40.6942692,153.966362 41.3090824,154.040564 L41.6058887,154.072364 L41.6376894,156.012206 L41.6588898,157.941447 L42.273703,157.941447 L42.8779159,157.941447 L43.9379385,156.128808 C44.520951,155.121787 45.0615625,154.241968 45.1357641,154.167766 C45.2947675,153.998163 45.8565795,153.966362 45.9519815,154.125366 C45.9837822,154.178367 45.5385727,155.036985 44.94496,156.022806 C44.3619476,157.008627 43.8849374,157.846045 43.8849374,157.867245 C43.8849374,157.888446 44.1287426,157.952047 44.4361492,157.983848 C44.8919589,158.047449 45.0615625,158.132251 45.4325704,158.503259 C45.8141786,158.895467 45.8883802,159.03327 45.9519815,159.563282 C46.1003847,160.761107 45.7823779,161.630326 45.0509623,161.990734 C44.7329555,162.149737 44.3725478,162.181538 42.697712,162.181538 L40.7048695,162.181538 L40.7048695,158.217053 Z M44.7753564,161.163916 C45.0191616,160.90951 45.0509623,160.803508 45.0509623,160.114493 C45.0509623,159.49968 45.0085614,159.287676 44.8283575,159.065071 C44.616353,158.789465 44.6057528,158.789465 43.1323213,158.789465 L41.6588898,158.789465 L41.6588898,160.114493 L41.6588898,161.439522 L43.0793202,161.439522 C44.4679498,161.439522 44.4997505,161.428922 44.7753564,161.163916 Z" id="Shape" transform="translate(43.346235, 158.101414) scale(-1, 1) rotate(-180.000000) translate(-43.346235, -158.101414) "></path>
                <path d="M47.7222194,158.081177 L47.75402,154.02129 L50.139071,154.02129 L52.5241219,154.02129 L52.5559226,154.413498 L52.5877233,154.816307 L50.5948807,154.837507 L48.6020381,154.869308 L48.5702375,156.38514 L48.5384368,157.890373 L49.9694674,157.890373 L51.3898977,157.890373 L51.4322986,158.187179 C51.5065002,158.72779 51.4852997,158.738391 49.9694674,158.738391 L48.549037,158.738391 L48.549037,160.063419 L48.549037,161.388447 L50.56308,161.388447 L52.5771231,161.388447 L52.5771231,161.759455 L52.5771231,162.130463 L50.139071,162.130463 L47.7010189,162.130463 L47.7222194,158.081177 Z" id="Shape" transform="translate(50.144371, 158.075877) scale(-1, 1) rotate(-180.000000) translate(-50.144371, -158.075877) "></path>
                <path d="M54.2943597,158.139146 L54.3261604,154.079259 L54.728969,154.047458 C54.9409735,154.026258 55.1317776,154.026258 55.1423778,154.047458 C55.1529781,154.068659 55.195379,155.510289 55.2271797,157.248727 L55.2801808,160.418194 L56.9444163,157.566733 C59.2340652,153.65525 58.99026,154.005057 59.3930686,154.047458 L59.7322759,154.079259 L59.7640766,158.139146 L59.785277,162.188432 L59.361268,162.188432 L58.9372589,162.188432 L58.9372589,159.050765 C58.9372589,157.333528 58.9054582,155.944899 58.8630573,155.966099 C58.8100562,155.9979 57.9726383,157.40773 56.976217,159.103766 L55.1741785,162.177832 L54.7183688,162.188432 L54.2731593,162.188432 L54.2943597,158.139146 Z" id="Shape" transform="translate(57.029218, 158.104861) scale(-1, 1) rotate(-180.000000) translate(-57.029218, -158.104861) "></path>
                <polygon id="Shape" transform="translate(64.136670, 158.075877) scale(-1, 1) rotate(-180.000000) translate(-64.136670, -158.075877) " points="61.7145182 158.081177 61.7463189 154.02129 64.1313699 154.02129 66.5164208 154.02129 66.5482215 154.424099 66.5800222 154.816307 64.5659791 154.816307 62.5413359 154.816307 62.5413359 156.35334 62.5413359 157.890373 63.9723665 157.890373 65.403397 157.890373 65.403397 158.314382 65.403397 158.738391 63.9723665 158.738391 62.5413359 158.738391 62.5413359 160.063419 62.5413359 161.388447 64.5553789 161.388447 66.5694219 161.388447 66.5694219 161.759455 66.5694219 162.130463 64.1313699 162.130463 61.6933178 162.130463"></polygon>
                <path d="M68.2654582,158.844393 C68.2654582,155.176715 68.2866586,155.028311 68.8908715,154.519501 C69.336081,154.148493 69.8342917,154.02129 70.8625136,154.02129 C71.8801354,154.02129 72.3889462,154.148493 72.8235555,154.519501 C73.4595691,155.049512 73.4595691,155.070712 73.4595691,158.791392 L73.4595691,162.183464 L73.03556,162.183464 L72.611551,162.183464 L72.611551,158.833793 L72.611551,155.484121 L72.3041444,155.176715 C72.0073381,154.879908 71.954337,154.869308 70.9791161,154.869308 C69.0604751,154.869308 69.1134763,154.752706 69.1134763,158.950395 L69.1134763,162.183464 L68.6894672,162.183464 L68.2654582,162.183464 L68.2654582,158.844393 Z" id="Shape" transform="translate(70.862514, 158.102377) scale(-1, 1) rotate(-180.000000) translate(-70.862514, -158.102377) "></path>
                <path d="M75.3888103,158.134804 L75.420611,154.074917 L75.7916189,154.074917 L76.1626268,154.074917 L76.1944275,156.014759 L76.215628,157.944 L76.8410413,157.944 L77.4558545,157.944 L78.4946767,156.173762 C79.0670889,155.187941 79.6077004,154.308122 79.6925022,154.21272 C79.8833063,153.990115 80.5617208,153.947715 80.5617208,154.159719 C80.5617208,154.22332 80.0847106,155.092539 79.5016982,156.08896 L78.4416755,157.890999 L78.9186857,157.9652 C79.5971002,158.060602 80.0847106,158.39981 80.3603165,158.961622 C80.5511206,159.37503 80.5829213,159.576435 80.5405204,160.28665 C80.4875192,161.21947 80.3285158,161.526876 79.7137027,161.950885 C79.3850957,162.17349 79.2684932,162.18409 77.3604524,162.18409 L75.3676099,162.18409 L75.3888103,158.134804 Z M79.3426948,161.187669 C79.8091047,160.721259 79.8303052,159.523434 79.3850957,159.046423 C79.1518907,158.802618 79.0882893,158.792018 77.6784592,158.792018 L76.215628,158.792018 L76.215628,160.117046 L76.215628,161.442075 L77.6466585,161.442075 C79.024688,161.442075 79.0988896,161.431474 79.3426948,161.187669 Z" id="Shape" transform="translate(77.964665, 158.102690) scale(-1, 1) rotate(-180.000000) translate(-77.964665, -158.102690) "></path>
                <polygon id="Shape" transform="translate(95.826047, 158.075877) scale(-1, 1) rotate(-180.000000) translate(-95.826047, -158.075877) " points="93.4091952 158.081177 93.4409959 154.02129 93.8120038 154.02129 94.1830118 154.02129 94.2148124 155.950531 94.2360129 157.879772 95.6988441 157.911573 97.1510752 157.943374 97.1510752 158.314382 97.1510752 158.68539 95.6988441 158.71719 94.2360129 158.748991 94.2360129 160.063419 94.2360129 161.388447 96.2500559 161.388447 98.2640989 161.388447 98.2640989 161.759455 98.2640989 162.130463 95.8260469 162.130463 93.3879948 162.130463"></polygon>
                <path d="M100.384144,161.936758 C99.5891272,161.396147 99.5891272,161.396147 99.5573266,158.406883 C99.5149256,155.375218 99.5679268,155.036011 100.119139,154.548401 C100.617349,154.113791 101.189761,153.986589 102.387587,154.02899 C103.574812,154.07139 104.083623,154.272795 104.475832,154.845207 L104.730237,155.226815 L104.730237,158.152478 C104.730237,161.014539 104.719637,161.08874 104.497032,161.427948 C104.062423,162.053361 103.691415,162.169963 102.122581,162.169963 C100.861154,162.169963 100.702151,162.148763 100.384144,161.936758 Z M103.574812,161.120541 L103.882219,160.813134 L103.882219,158.141877 L103.882219,155.47062 L103.574812,155.163214 C103.278006,154.866407 103.225005,154.855807 102.249784,154.855807 C100.458346,154.855807 100.447746,154.866407 100.405345,157.770869 C100.362944,160.357325 100.415945,160.834335 100.755152,161.173542 C100.988357,161.406747 101.094359,161.427948 102.133182,161.427948 C103.235605,161.427948 103.267406,161.417347 103.574812,161.120541 Z" id="Shape" transform="translate(102.138088, 158.095627) scale(-1, 1) rotate(-180.000000) translate(-102.138088, -158.095627) "></path>
                <path d="M106.553476,158.133635 L106.585277,154.073749 L107.009286,154.073749 L107.433295,154.073749 L107.465095,156.01359 L107.486296,157.942831 L108.101109,157.942831 L108.705322,157.942831 L109.765345,156.130193 C110.348357,155.123171 110.888969,154.243352 110.96317,154.169151 C111.122174,153.999547 111.683986,153.967746 111.779388,154.11615 C111.811188,154.179751 111.355379,155.027769 110.772366,156.02419 C110.189354,157.020612 109.712343,157.847429 109.712343,157.86863 C109.712343,157.90043 109.956149,157.953431 110.263555,157.985232 C110.719365,158.048834 110.888969,158.133635 111.259977,158.504643 C111.630984,158.886251 111.705186,159.034655 111.768787,159.554066 C111.917191,160.720091 111.630984,161.557508 110.96317,161.970917 C110.645163,162.161721 110.422559,162.182922 108.567519,162.182922 L106.532276,162.182922 L106.553476,158.133635 Z M110.602762,161.1653 C110.846568,160.910895 110.878368,160.804892 110.878368,160.115878 C110.878368,159.501065 110.835967,159.28906 110.655764,159.066455 C110.443759,158.790849 110.433159,158.790849 108.959727,158.790849 L107.486296,158.790849 L107.486296,160.115878 L107.486296,161.440906 L108.906726,161.440906 C110.295356,161.440906 110.327157,161.430306 110.602762,161.1653 Z" id="Shape" transform="translate(109.169668, 158.102106) scale(-1, 1) rotate(-180.000000) translate(-109.169668, -158.102106) "></path>
                <path d="M113.528425,158.844393 C113.528425,155.176715 113.549625,155.028311 114.153838,154.519501 C114.599048,154.148493 115.097258,154.02129 116.12548,154.02129 C117.153702,154.02129 117.651913,154.148493 118.097123,154.519501 C118.701335,155.028311 118.722536,155.176715 118.722536,158.844393 L118.722536,162.183464 L118.298527,162.183464 L117.874518,162.183464 L117.874518,158.929195 C117.874518,155.87633 117.863918,155.643125 117.662513,155.325118 C117.418708,154.911709 117.079501,154.837507 115.818074,154.879908 C115.044257,154.911709 114.874654,154.95411 114.673249,155.166114 C114.429444,155.399319 114.429444,155.43112 114.397644,158.791392 L114.365843,162.183464 L113.952434,162.183464 L113.528425,162.183464 L113.528425,158.844393 Z" id="Shape" transform="translate(116.125480, 158.102377) scale(-1, 1) rotate(-180.000000) translate(-116.125480, -158.102377) "></path>
                <path d="M120.598776,162.098664 C120.556375,162.066864 120.524574,160.275425 120.524574,158.14478 C120.524574,153.894089 120.513974,153.957691 121.128787,154.031892 L121.425594,154.063693 L121.478595,156.766751 L121.531596,159.469808 L122.358414,157.084757 C123.418436,153.989491 123.407836,154.010692 123.800044,154.010692 C123.980248,154.010692 124.149852,154.074293 124.202853,154.137894 C124.245254,154.212096 124.701064,155.473523 125.209874,156.925754 L126.132094,159.575811 L126.163895,156.819752 L126.195696,154.063693 L126.587904,154.031892 C126.927111,154.000091 126.990713,154.031892 127.043714,154.243897 C127.075514,154.3817 127.086115,156.204939 127.075514,158.303783 L127.043714,162.119865 L126.609104,162.151666 L126.174495,162.183466 L125.644484,160.667634 C125.358278,159.830216 124.838867,158.324984 124.489059,157.328563 C124.149852,156.321541 123.842445,155.494723 123.810645,155.494723 C123.778844,155.494723 123.312434,156.798551 122.771822,158.388585 C121.351392,162.575675 121.531596,162.172866 121.065186,162.172866 C120.842581,162.172866 120.630577,162.141065 120.598776,162.098664 Z" id="Shape" transform="translate(123.802026, 158.097078) scale(-1, 1) rotate(-180.000000) translate(-123.802026, -158.097078) "></path>
            </g>
        </g>
    </g>
</svg>