<?xml version="1.0" encoding="UTF-8"?>
<svg width="346px" height="91px" viewBox="0 0 346 91" version="1.1" xmlns="http://www.w3.org/2000/svg" xmlns:xlink="http://www.w3.org/1999/xlink">
    <title>Group 2</title>
    <g id="Page-1" stroke="none" stroke-width="1" fill="none" fill-rule="evenodd">
        <g id="LEDA-Brand-Sheet" transform="translate(-64.000000, -1419.000000)">
            <g id="Group-2" transform="translate(64.000000, 1419.000000)">
                <path d="M99.6269156,90.0683003 L99.6269156,78.8452742 L104.052898,78.8452742 L104.052898,76.2371062 L92,76.2371062 L92,78.8452742 L96.4259821,78.8452742 L96.4259821,90.0683003 L99.6269156,90.0683003 Z M108.972851,90.0683003 L108.972851,86.2153248 L111.916919,86.2153248 L114.584364,90.0683003 L118.022404,90.0683003 L114.920264,85.6225593 C115.829172,85.2273823 116.530611,84.6576689 117.024582,83.9134189 C117.518553,83.1691689 117.765539,82.2833139 117.765539,81.2558538 C117.765539,80.2283936 117.521846,79.3392454 117.034461,78.5884092 C116.547076,77.8375729 115.852224,77.25798 114.949903,76.8496305 C114.047582,76.441281 112.983897,76.2371062 111.758849,76.2371062 L111.758849,76.2371062 L105.771918,76.2371062 L105.771918,90.0683003 L108.972851,90.0683003 Z M111.581019,83.6664333 L108.972851,83.6664333 L108.972851,78.8452742 L111.581019,78.8452742 C112.542616,78.8452742 113.273694,79.0527421 113.774251,79.4676779 C114.274809,79.8826138 114.525088,80.4786724 114.525088,81.2558538 C114.525088,82.0198626 114.274809,82.612628 113.774251,83.0341501 C113.273694,83.4556722 112.542616,83.6664333 111.581019,83.6664333 L111.581019,83.6664333 Z M121.756826,90.0683003 L122.981875,87.104473 L129.403501,87.104473 L130.628549,90.0683003 L133.987553,90.0683003 L127.803034,76.2371062 L124.641618,76.2371062 L118.476857,90.0683003 L121.756826,90.0683003 Z M128.395799,84.6741346 L124.009335,84.6741346 L126.202567,79.3787631 L128.395799,84.6741346 Z M138.591365,90.0683003 L138.591365,81.6707896 L145.487203,90.0683003 L148.11513,90.0683003 L148.11513,76.2371062 L144.953715,76.2371062 L144.953715,84.6346169 L138.077635,76.2371062 L135.429949,76.2371062 L135.429949,90.0683003 L138.591365,90.0683003 Z M155.939634,90.3054065 C157.204201,90.3054065 158.277765,90.1144043 159.160327,89.7323998 C160.042889,89.3503954 160.70481,88.8333722 161.146091,88.1813302 C161.587372,87.5292882 161.808012,86.8080902 161.808012,86.0177363 C161.808012,85.0956567 161.567613,84.3645793 161.086814,83.8245041 C160.606016,83.2844289 160.029716,82.8892519 159.357915,82.6389732 C158.686114,82.3886944 157.823311,82.1384157 156.769506,81.8881369 C155.755218,81.6642033 155.001089,81.4369765 154.507118,81.2064566 C154.013147,80.9759367 153.766161,80.6235706 153.766161,80.1493582 C153.766161,79.6751459 153.980215,79.2931414 154.408324,79.003345 C154.836432,78.7135486 155.498353,78.5686503 156.394088,78.5686503 C157.671827,78.5686503 158.949566,78.9308959 160.227305,79.655387 L160.227305,79.655387 L161.215247,77.2250486 C160.582964,76.8298716 159.8453,76.5269026 159.002256,76.3161416 C158.159212,76.1053805 157.296409,76 156.413847,76 C155.14928,76 154.079009,76.1910022 153.203034,76.5730066 C152.327058,76.955011 151.671723,77.4720342 151.237028,78.1240762 C150.802334,78.7761182 150.584986,79.5039025 150.584986,80.307429 C150.584986,81.2295086 150.825386,81.9671723 151.306184,82.5204201 C151.786983,83.0736678 152.363283,83.4754311 153.035084,83.7257098 C153.706884,83.9759886 154.569688,84.2262673 155.623493,84.4765461 C156.308466,84.6346169 156.851835,84.7795151 157.253598,84.9112408 C157.655361,85.0429664 157.984675,85.2175029 158.24154,85.4348503 C158.498405,85.6521976 158.626838,85.9255283 158.626838,86.2548425 C158.626838,86.7027097 158.40949,87.0616621 157.974796,87.3316997 C157.540101,87.6017373 156.8683,87.7367561 155.959393,87.7367561 C155.142694,87.7367561 154.325995,87.6050305 153.509296,87.3415792 C152.692597,87.0781278 151.987865,86.7290548 151.395099,86.2943602 L151.395099,86.2943602 L150.308363,88.7049397 C150.927473,89.1791521 151.747465,89.5644496 152.768339,89.8608324 C153.789213,90.1572151 154.846311,90.3054065 155.939634,90.3054065 Z M167.202178,90.0683003 L167.202178,86.2548425 L169.988176,86.2548425 C171.213224,86.2548425 172.276909,86.0539608 173.17923,85.6521976 C174.081551,85.2504343 174.776403,84.6708414 175.263788,83.9134189 C175.751173,83.1559964 175.994866,82.2701413 175.994866,81.2558538 C175.994866,80.2283936 175.751173,79.3392454 175.263788,78.5884092 C174.776403,77.8375729 174.081551,77.25798 173.17923,76.8496305 C172.276909,76.441281 171.213224,76.2371062 169.988176,76.2371062 L169.988176,76.2371062 L164.001245,76.2371062 L164.001245,90.0683003 L167.202178,90.0683003 Z M169.810346,83.6466744 L167.202178,83.6466744 L167.202178,78.8452742 L169.810346,78.8452742 C170.771943,78.8452742 171.503021,79.0527421 172.003578,79.4676779 C172.504136,79.8826138 172.754415,80.4786724 172.754415,81.2558538 C172.754415,82.0198626 172.504136,82.6093349 172.003578,83.0242707 C171.503021,83.4392065 170.771943,83.6466744 169.810346,83.6466744 L169.810346,83.6466744 Z M185.162972,90.3054065 C186.598781,90.3054065 187.889693,89.9958512 189.035706,89.3767406 C190.181719,88.75763 191.08404,87.9047063 191.742668,86.8179697 C192.401297,85.731233 192.730611,84.5094775 192.730611,83.1527032 C192.730611,81.795929 192.401297,80.5741735 191.742668,79.4874368 C191.08404,78.4007001 190.181719,77.5477765 189.035706,76.9286659 C187.889693,76.3095553 186.598781,76 185.162972,76 C183.727162,76 182.432957,76.3095553 181.280358,76.9286659 C180.127758,77.5477765 179.225438,78.4007001 178.573396,79.4874368 C177.921354,80.5741735 177.595333,81.795929 177.595333,83.1527032 C177.595333,84.5094775 177.921354,85.731233 178.573396,86.8179697 C179.225438,87.9047063 180.127758,88.75763 181.280358,89.3767406 C182.432957,89.9958512 183.727162,90.3054065 185.162972,90.3054065 Z M185.162972,87.5786853 C184.346273,87.5786853 183.608609,87.3909763 182.949981,87.0155581 C182.291352,86.64014 181.774329,86.1165305 181.398911,85.4447297 C181.023493,84.7729288 180.835784,84.00892 180.835784,83.1527032 C180.835784,82.2964865 181.023493,81.5324776 181.398911,80.8606768 C181.774329,80.1888759 182.291352,79.6652664 182.949981,79.2898483 C183.608609,78.9144302 184.346273,78.7267211 185.162972,78.7267211 C185.979671,78.7267211 186.717334,78.9144302 187.375963,79.2898483 C188.034591,79.6652664 188.551614,80.1888759 188.927032,80.8606768 C189.30245,81.5324776 189.490159,82.2964865 189.490159,83.1527032 C189.490159,84.00892 189.30245,84.7729288 188.927032,85.4447297 C188.551614,86.1165305 188.034591,86.64014 187.375963,87.0155581 C186.717334,87.3909763 185.979671,87.5786853 185.162972,87.5786853 Z M198.342124,90.0683003 L198.342124,86.2153248 L201.286192,86.2153248 L203.953637,90.0683003 L207.391676,90.0683003 L204.289537,85.6225593 C205.198444,85.2273823 205.899883,84.6576689 206.393855,83.9134189 C206.887826,83.1691689 207.134811,82.2833139 207.134811,81.2558538 C207.134811,80.2283936 206.891119,79.3392454 206.403734,78.5884092 C205.916349,77.8375729 205.221496,77.25798 204.319175,76.8496305 C203.416855,76.441281 202.35317,76.2371062 201.128121,76.2371062 L201.128121,76.2371062 L195.14119,76.2371062 L195.14119,90.0683003 L198.342124,90.0683003 Z M200.950292,83.6664333 L198.342124,83.6664333 L198.342124,78.8452742 L200.950292,78.8452742 C201.911889,78.8452742 202.642966,79.0527421 203.143524,79.4676779 C203.644081,79.8826138 203.89436,80.4786724 203.89436,81.2558538 C203.89436,82.0198626 203.644081,82.612628 203.143524,83.0341501 C202.642966,83.4556722 201.911889,83.6664333 200.950292,83.6664333 L200.950292,83.6664333 Z M215.729911,90.0683003 L215.729911,78.8452742 L220.155893,78.8452742 L220.155893,76.2371062 L208.102995,76.2371062 L208.102995,78.8452742 L212.528977,78.8452742 L212.528977,90.0683003 L215.729911,90.0683003 Z M232.011202,90.3054065 C233.275768,90.3054065 234.349332,90.1144043 235.231894,89.7323998 C236.114456,89.3503954 236.776378,88.8333722 237.217658,88.1813302 C237.658939,87.5292882 237.87958,86.8080902 237.87958,86.0177363 C237.87958,85.0956567 237.639181,84.3645793 237.158382,83.8245041 C236.677583,83.2844289 236.101284,82.8892519 235.429483,82.6389732 C234.757682,82.3886944 233.894879,82.1384157 232.841074,81.8881369 C231.826786,81.6642033 231.072657,81.4369765 230.578685,81.2064566 C230.084714,80.9759367 229.837729,80.6235706 229.837729,80.1493582 C229.837729,79.6751459 230.051783,79.2931414 230.479891,79.003345 C230.907999,78.7135486 231.569921,78.5686503 232.465655,78.5686503 C233.743394,78.5686503 235.021133,78.9308959 236.298872,79.655387 L236.298872,79.655387 L237.286814,77.2250486 C236.654531,76.8298716 235.916868,76.5269026 235.073823,76.3161416 C234.230779,76.1053805 233.367976,76 232.485414,76 C231.220848,76 230.150577,76.1910022 229.274601,76.5730066 C228.398626,76.955011 227.743291,77.4720342 227.308596,78.1240762 C226.873901,78.7761182 226.656554,79.5039025 226.656554,80.307429 C226.656554,81.2295086 226.896953,81.9671723 227.377752,82.5204201 C227.85855,83.0736678 228.43485,83.4754311 229.106651,83.7257098 C229.778452,83.9759886 230.641255,84.2262673 231.69506,84.4765461 C232.380034,84.6346169 232.923402,84.7795151 233.325165,84.9112408 C233.726929,85.0429664 234.056243,85.2175029 234.313108,85.4348503 C234.569973,85.6521976 234.698405,85.9255283 234.698405,86.2548425 C234.698405,86.7027097 234.481058,87.0616621 234.046363,87.3316997 C233.611669,87.6017373 232.939868,87.7367561 232.030961,87.7367561 C231.214262,87.7367561 230.397563,87.6050305 229.580863,87.3415792 C228.764164,87.0781278 228.059432,86.7290548 227.466667,86.2943602 L227.466667,86.2943602 L226.37993,88.7049397 C226.999041,89.1791521 227.819033,89.5644496 228.839907,89.8608324 C229.860781,90.1572151 230.917879,90.3054065 232.011202,90.3054065 Z M246.771062,90.3054065 C248.206872,90.3054065 249.497783,89.9958512 250.643796,89.3767406 C251.789809,88.75763 252.69213,87.9047063 253.350758,86.8179697 C254.009387,85.731233 254.338701,84.5094775 254.338701,83.1527032 C254.338701,81.795929 254.009387,80.5741735 253.350758,79.4874368 C252.69213,78.4007001 251.789809,77.5477765 250.643796,76.9286659 C249.497783,76.3095553 248.206872,76 246.771062,76 C245.335252,76 244.041048,76.3095553 242.888448,76.9286659 C241.735849,77.5477765 240.833528,78.4007001 240.181486,79.4874368 C239.529444,80.5741735 239.203423,81.795929 239.203423,83.1527032 C239.203423,84.5094775 239.529444,85.731233 240.181486,86.8179697 C240.833528,87.9047063 241.735849,88.75763 242.888448,89.3767406 C244.041048,89.9958512 245.335252,90.3054065 246.771062,90.3054065 Z M246.771062,87.5786853 C245.954363,87.5786853 245.216699,87.3909763 244.558071,87.0155581 C243.899442,86.64014 243.382419,86.1165305 243.007001,85.4447297 C242.631583,84.7729288 242.443874,84.00892 242.443874,83.1527032 C242.443874,82.2964865 242.631583,81.5324776 243.007001,80.8606768 C243.382419,80.1888759 243.899442,79.6652664 244.558071,79.2898483 C245.216699,78.9144302 245.954363,78.7267211 246.771062,78.7267211 C247.587761,78.7267211 248.325425,78.9144302 248.984053,79.2898483 C249.642681,79.6652664 250.159704,80.1888759 250.535123,80.8606768 C250.910541,81.5324776 251.09825,82.2964865 251.09825,83.1527032 C251.09825,84.00892 250.910541,84.7729288 250.535123,85.4447297 C250.159704,86.1165305 249.642681,86.64014 248.984053,87.0155581 C248.325425,87.3909763 247.587761,87.5786853 246.771062,87.5786853 Z M266.88557,90.0683003 L266.88557,87.4601322 L259.950214,87.4601322 L259.950214,76.2371062 L256.74928,76.2371062 L256.74928,90.0683003 L266.88557,90.0683003 Z M274.828627,90.3054065 C276.804512,90.3054065 278.342409,89.758745 279.442318,88.665422 C280.542227,87.5720991 281.092182,86.01115 281.092182,83.9825749 L281.092182,83.9825749 L281.092182,76.2371062 L277.930766,76.2371062 L277.930766,83.8640218 C277.930766,85.1417607 277.667315,86.080306 277.140412,86.6796577 C276.61351,87.2790095 275.849501,87.5786853 274.848386,87.5786853 C272.793466,87.5786853 271.766005,86.3404642 271.766005,83.8640218 L271.766005,83.8640218 L271.766005,76.2371062 L268.565072,76.2371062 L268.565072,83.9825749 C268.565072,86.01115 269.115027,87.5720991 270.214936,88.665422 C271.314845,89.758745 272.852742,90.3054065 274.828627,90.3054065 Z M290.319564,90.0683003 L290.319564,78.8452742 L294.745546,78.8452742 L294.745546,76.2371062 L282.692649,76.2371062 L282.692649,78.8452742 L287.118631,78.8452742 L287.118631,90.0683003 L290.319564,90.0683003 Z M299.6655,90.0683003 L299.6655,76.2371062 L296.464566,76.2371062 L296.464566,90.0683003 L299.6655,90.0683003 Z M309.643718,90.3054065 C311.079528,90.3054065 312.37044,89.9958512 313.516453,89.3767406 C314.662466,88.75763 315.564787,87.9047063 316.223415,86.8179697 C316.882043,85.731233 317.211357,84.5094775 317.211357,83.1527032 C317.211357,81.795929 316.882043,80.5741735 316.223415,79.4874368 C315.564787,78.4007001 314.662466,77.5477765 313.516453,76.9286659 C312.37044,76.3095553 311.079528,76 309.643718,76 C308.207909,76 306.913704,76.3095553 305.761105,76.9286659 C304.608505,77.5477765 303.706184,78.4007001 303.054142,79.4874368 C302.4021,80.5741735 302.076079,81.795929 302.076079,83.1527032 C302.076079,84.5094775 302.4021,85.731233 303.054142,86.8179697 C303.706184,87.9047063 304.608505,88.75763 305.761105,89.3767406 C306.913704,89.9958512 308.207909,90.3054065 309.643718,90.3054065 Z M309.643718,87.5786853 C308.827019,87.5786853 308.089356,87.3909763 307.430727,87.0155581 C306.772099,86.64014 306.255076,86.1165305 305.879658,85.4447297 C305.50424,84.7729288 305.316531,84.00892 305.316531,83.1527032 C305.316531,82.2964865 305.50424,81.5324776 305.879658,80.8606768 C306.255076,80.1888759 306.772099,79.6652664 307.430727,79.2898483 C308.089356,78.9144302 308.827019,78.7267211 309.643718,78.7267211 C310.460417,78.7267211 311.198081,78.9144302 311.856709,79.2898483 C312.515338,79.6652664 313.032361,80.1888759 313.407779,80.8606768 C313.783197,81.5324776 313.970906,82.2964865 313.970906,83.1527032 C313.970906,84.00892 313.783197,84.7729288 313.407779,85.4447297 C313.032361,86.1165305 312.515338,86.64014 311.856709,87.0155581 C311.198081,87.3909763 310.460417,87.5786853 309.643718,87.5786853 Z M322.783353,90.0683003 L322.783353,81.6707896 L329.679191,90.0683003 L332.307118,90.0683003 L332.307118,76.2371062 L329.145702,76.2371062 L329.145702,84.6346169 L322.269623,76.2371062 L319.621937,76.2371062 L319.621937,90.0683003 L322.783353,90.0683003 Z M340.131622,90.3054065 C341.396188,90.3054065 342.469752,90.1144043 343.352314,89.7323998 C344.234876,89.3503954 344.896798,88.8333722 345.338079,88.1813302 C345.77936,87.5292882 346,86.8080902 346,86.0177363 C346,85.0956567 345.759601,84.3645793 345.278802,83.8245041 C344.798003,83.2844289 344.221704,82.8892519 343.549903,82.6389732 C342.878102,82.3886944 342.015299,82.1384157 340.961494,81.8881369 C339.947206,81.6642033 339.193077,81.4369765 338.699105,81.2064566 C338.205134,80.9759367 337.958149,80.6235706 337.958149,80.1493582 C337.958149,79.6751459 338.172203,79.2931414 338.600311,79.003345 C339.02842,78.7135486 339.690341,78.5686503 340.586075,78.5686503 C341.863814,78.5686503 343.141553,78.9308959 344.419292,79.655387 L344.419292,79.655387 L345.407235,77.2250486 C344.774951,76.8298716 344.037288,76.5269026 343.194243,76.3161416 C342.351199,76.1053805 341.488396,76 340.605834,76 C339.341268,76 338.270997,76.1910022 337.395021,76.5730066 C336.519046,76.955011 335.863711,77.4720342 335.429016,78.1240762 C334.994321,78.7761182 334.776974,79.5039025 334.776974,80.307429 C334.776974,81.2295086 335.017373,81.9671723 335.498172,82.5204201 C335.978971,83.0736678 336.55527,83.4754311 337.227071,83.7257098 C337.898872,83.9759886 338.761675,84.2262673 339.81548,84.4765461 C340.500454,84.6346169 341.043822,84.7795151 341.445585,84.9112408 C341.847349,85.0429664 342.176663,85.2175029 342.433528,85.4348503 C342.690393,85.6521976 342.818825,85.9255283 342.818825,86.2548425 C342.818825,86.7027097 342.601478,87.0616621 342.166783,87.3316997 C341.732089,87.6017373 341.060288,87.7367561 340.151381,87.7367561 C339.334682,87.7367561 338.517983,87.6050305 337.701284,87.3415792 C336.884584,87.0781278 336.179852,86.7290548 335.587087,86.2943602 L335.587087,86.2943602 L334.50035,88.7049397 C335.119461,89.1791521 335.939453,89.5644496 336.960327,89.8608324 C337.981201,90.1572151 339.038299,90.3054065 340.131622,90.3054065 Z" id="TRANSPORTSOLUTIONS" fill="#FFFFFF" fill-rule="nonzero"></path>
                <path d="M141,64 L141,50 L110,50 L110,0 L92,0 L92,64 L141,64 Z M200,64 L200,50 L167,50 L167,38 L195,38 L195,25 L167,25 L167,14 L199,14 L199,0 L149,0 L149,64 L200,64 Z M238.257618,64 C245.265928,64 251.481994,62.6895238 256.905817,60.0685714 C262.32964,57.447619 266.534626,53.7295238 269.520776,48.9142857 C272.506925,44.0990476 274,38.4609524 274,32 C274,25.5390476 272.506925,19.9009524 269.520776,15.0857143 C266.534626,10.2704762 262.32964,6.55238095 256.905817,3.93142857 C251.481994,1.31047619 245.265928,0 238.257618,0 L238.257618,0 L208,0 L208,64 L238.257618,64 Z M225,50 L225,15 L236.574074,15 C242.12963,15 246.589506,16.5494792 249.953704,19.6484375 C253.317901,22.7473958 255,27.03125 255,32.5 C255,37.96875 253.317901,42.2526042 249.953704,45.3515625 C246.589506,48.4505208 242.12963,50 236.574074,50 L225,50 Z M290,64 L295,52 L323,52 L327,64 L346,64 L318,0 L300,0 L272,64 L290,64 Z M318,38 L302,38 L310,18 L318,38 Z" id="LEDA" fill="#FFFFFF" fill-rule="nonzero"></path>
                <g id="Group">
                    <path d="M78,26 L78,38 L30.951941,38 L21.201941,26 L78,26 Z" id="Rectangle" stroke="#FFFFFF" stroke-width="4" fill="#0ADC0A"></path>
                    <polygon id="Rectangle" fill="#FFFFFF" points="34 48 80 48 80 64 47 64"></polygon>
                    <polygon id="Rectangle" fill="#FFFFFF" points="0 0 80 0 80 16 13 16"></polygon>
                </g>
            </g>
        </g>
    </g>
</svg>