<?xml version="1.0" encoding="UTF-8" standalone="no"?>
<svg width="303px" height="151px" viewBox="0 0 303 151" version="1.1" xmlns="http://www.w3.org/2000/svg" xmlns:xlink="http://www.w3.org/1999/xlink">
    <!-- Generator: Sketch 3.8.3 (29802) - http://www.bohemiancoding.com/sketch -->
    <title>Group 2</title>
    <desc>Created with Sketch.</desc>
    <defs></defs>
    <g id="Page-1" stroke="none" stroke-width="1" fill="none" fill-rule="evenodd">
        <g id="Logo-Copy-5" transform="translate(-150.000000, -126.000000)">
            <g id="Group-2" transform="translate(148.000000, 120.000000)">
                <path d="M3.5,49.5 L302.5,49.5" id="Line" stroke="#9C9FB2" stroke-width="3" stroke-linecap="square"></path>
                <path d="M4,117.5 L303,117.5" id="Line" stroke="#9C9FB2" stroke-width="3" stroke-linecap="square"></path>
                <text id="NO-COMPROMISE" font-family="ArialMT, Arial" font-size="35" font-weight="normal" fill="#9C9FB2">
                    <tspan x="0.353515625" y="32">NO COMPROMISE</tspan>
                </text>
                <text id="LEDA-COMMITMENT" font-family="ArialMT, Arial" font-size="31" font-weight="normal" fill="#9C9FB2">
                    <tspan x="2.29882812" y="156">LEDA COMMITMENT</tspan>
                </text>
                <g id="Group" transform="translate(8.000000, 58.000000)" fill="#9C9FB2">
                    <path d="M109.958666,20.5439815 C110.248018,20.2546296 110.305888,19.7916667 110.190147,19.3865741 C110.016536,18.9814815 109.611444,18.75 109.206351,18.75 L93.2341288,18.75 L86.231814,0.694444444 C86.0582029,0.289351852 85.6531103,0 85.2480177,0 C84.8429251,0 84.4378325,0.289351852 84.2642214,0.694444444 L77.2619066,18.75 L61.2896843,18.75 C60.8845917,18.75 60.4794992,18.9814815 60.305888,19.3865741 C60.1901473,19.7916667 60.2480177,20.2546296 60.5373695,20.5439815 L72.6901473,32.6388889 L69.6230177,48.7847222 C69.5651473,49.1898148 69.7387584,49.5949074 70.0859806,49.8263889 C70.4332029,50.0578704 70.8961658,50.0578704 71.243388,49.8263889 L85.2480177,40.7986111 L99.2526473,49.8263889 C99.4262584,49.9421296 99.6577399,50 99.831351,50 C100.004962,50 100.236444,49.9421296 100.410055,49.8263889 C100.757277,49.5949074 100.930888,49.1898148 100.873018,48.7847222 L97.805888,32.6388889 L109.958666,20.5439815 Z" id="star"></path>
                    <path d="M170.208666,20.5439815 C170.498018,20.2546296 170.555888,19.7916667 170.440147,19.3865741 C170.266536,18.9814815 169.861444,18.75 169.456351,18.75 L153.484129,18.75 L146.481814,0.694444444 C146.308203,0.289351852 145.90311,0 145.498018,0 C145.092925,0 144.687832,0.289351852 144.514221,0.694444444 L137.511907,18.75 L121.539684,18.75 C121.134592,18.75 120.729499,18.9814815 120.555888,19.3865741 C120.440147,19.7916667 120.498018,20.2546296 120.78737,20.5439815 L132.940147,32.6388889 L129.873018,48.7847222 C129.815147,49.1898148 129.988758,49.5949074 130.335981,49.8263889 C130.683203,50.0578704 131.146166,50.0578704 131.493388,49.8263889 L145.498018,40.7986111 L159.502647,49.8263889 C159.676258,49.9421296 159.90774,50 160.081351,50 C160.254962,50 160.486444,49.9421296 160.660055,49.8263889 C161.007277,49.5949074 161.180888,49.1898148 161.123018,48.7847222 L158.055888,32.6388889 L170.208666,20.5439815 Z" id="star"></path>
                    <path d="M230.458666,20.5439815 C230.748018,20.2546296 230.805888,19.7916667 230.690147,19.3865741 C230.516536,18.9814815 230.111444,18.75 229.706351,18.75 L213.734129,18.75 L206.731814,0.694444444 C206.558203,0.289351852 206.15311,0 205.748018,0 C205.342925,0 204.937832,0.289351852 204.764221,0.694444444 L197.761907,18.75 L181.789684,18.75 C181.384592,18.75 180.979499,18.9814815 180.805888,19.3865741 C180.690147,19.7916667 180.748018,20.2546296 181.03737,20.5439815 L193.190147,32.6388889 L190.123018,48.7847222 C190.065147,49.1898148 190.238758,49.5949074 190.585981,49.8263889 C190.933203,50.0578704 191.396166,50.0578704 191.743388,49.8263889 L205.748018,40.7986111 L219.752647,49.8263889 C219.926258,49.9421296 220.15774,50 220.331351,50 C220.504962,50 220.736444,49.9421296 220.910055,49.8263889 C221.257277,49.5949074 221.430888,49.1898148 221.373018,48.7847222 L218.305888,32.6388889 L230.458666,20.5439815 Z" id="star"></path>
                    <path d="M49.7086658,20.5439815 C49.9980177,20.2546296 50.055888,19.7916667 49.9401473,19.3865741 C49.7665362,18.9814815 49.3614436,18.75 48.956351,18.75 L32.9841288,18.75 L25.981814,0.694444444 C25.8082029,0.289351852 25.4031103,0 24.9980177,0 C24.5929251,0 24.1878325,0.289351852 24.0142214,0.694444444 L17.0119066,18.75 L1.03968434,18.75 C0.634591747,18.75 0.229499154,18.9814815 0.0558880433,19.3865741 C-0.0598526975,19.7916667 -0.00198232709,20.2546296 0.287369525,20.5439815 L12.4401473,32.6388889 L9.37301767,48.7847222 C9.3151473,49.1898148 9.48875841,49.5949074 9.83598064,49.8263889 C10.1832029,50.0578704 10.6461658,50.0578704 10.993388,49.8263889 L24.9980177,40.7986111 L39.0026473,49.8263889 C39.1762584,49.9421296 39.4077399,50 39.581351,50 C39.7549621,50 39.9864436,49.9421296 40.1600547,49.8263889 C40.5072769,49.5949074 40.680888,49.1898148 40.6230177,48.7847222 L37.555888,32.6388889 L49.7086658,20.5439815 Z" id="star"></path>
                    <path d="M290.708666,20.5439815 C290.998018,20.2546296 291.055888,19.7916667 290.940147,19.3865741 C290.766536,18.9814815 290.361444,18.75 289.956351,18.75 L273.984129,18.75 L266.981814,0.694444444 C266.808203,0.289351852 266.40311,0 265.998018,0 C265.592925,0 265.187832,0.289351852 265.014221,0.694444444 L258.011907,18.75 L242.039684,18.75 C241.634592,18.75 241.229499,18.9814815 241.055888,19.3865741 C240.940147,19.7916667 240.998018,20.2546296 241.28737,20.5439815 L253.440147,32.6388889 L250.373018,48.7847222 C250.315147,49.1898148 250.488758,49.5949074 250.835981,49.8263889 C251.183203,50.0578704 251.646166,50.0578704 251.993388,49.8263889 L265.998018,40.7986111 L280.002647,49.8263889 C280.176258,49.9421296 280.40774,50 280.581351,50 C280.754962,50 280.986444,49.9421296 281.160055,49.8263889 C281.507277,49.5949074 281.680888,49.1898148 281.623018,48.7847222 L278.555888,32.6388889 L290.708666,20.5439815 Z" id="star"></path>
                </g>
            </g>
        </g>
    </g>
</svg>